<svg width="48" height="59" viewBox="0 0 48 59" fill="none" xmlns="http://www.w3.org/2000/svg">
<path d="M16.6417 1.92784C16.6552 1.9195 16.671 1.91579 16.6867 1.91726C16.7025 1.91873 16.7173 1.9253 16.7289 1.93598C16.7406 1.94665 16.7484 1.96084 16.7511 1.97635C16.7539 1.99186 16.7514 2.00783 16.7442 2.02183L13.2223 8.15309L13.0553 8.44693L11.2516 11.5833L2.12141 17.8066C2.10799 17.8149 2.09218 17.8187 2.07643 17.8172C2.06067 17.8157 2.04584 17.8091 2.03421 17.7985C2.02257 17.7878 2.01479 17.7736 2.01204 17.7581C2.00929 17.7426 2.01173 17.7266 2.01899 17.7126L7.43474 8.28323C7.48441 8.19559 7.55385 8.12062 7.63759 8.06426L10.5026 6.10788L10.7834 5.91847L16.6417 1.92784Z" fill="white"/>
<path d="M13.4755 5.44804C13.0974 5.26525 11.0628 6.99185 8.8507 9.37977C6.63857 11.7677 5.07433 13.9259 5.28801 14.2862L9.00916 17.701C9.02576 17.7162 9.04524 17.728 9.06646 17.7357C9.08768 17.7434 9.11022 17.7467 9.13278 17.7457C9.15533 17.7446 9.17744 17.7391 9.19782 17.7294C9.21821 17.7197 9.23645 17.7061 9.2515 17.6894L17.2116 9.09665C17.2272 9.08036 17.2393 9.06116 17.2474 9.04016C17.2554 9.01915 17.2592 8.99677 17.2584 8.97431C17.2577 8.95185 17.2524 8.92976 17.243 8.90933C17.2336 8.8889 17.2202 8.87053 17.2036 8.8553L13.4825 5.44049L13.4755 5.44804Z" fill="white"/>
<path opacity="0.2" d="M13.4755 5.44804C13.0974 5.26525 11.0628 6.99185 8.8507 9.37977C6.63857 11.7677 5.07433 13.9259 5.28801 14.2862L9.00916 17.701C9.02576 17.7162 9.04524 17.728 9.06646 17.7357C9.08768 17.7434 9.11022 17.7467 9.13278 17.7457C9.15533 17.7446 9.17744 17.7391 9.19782 17.7294C9.21821 17.7197 9.23645 17.7061 9.2515 17.6894L17.2116 9.09665C17.2272 9.08036 17.2393 9.06116 17.2474 9.04016C17.2554 9.01915 17.2592 8.99677 17.2584 8.97431C17.2577 8.95185 17.2524 8.92976 17.243 8.90933C17.2336 8.8889 17.2202 8.87053 17.2036 8.8553L13.4825 5.44049L13.4755 5.44804Z" fill="white"/>
<path opacity="0.2" d="M16.9011 1.75024L16.6147 2.24877L10.9767 6.0924L10.696 6.28181L7.6955 8.31998L2.33423 17.6527L1.85818 17.9772L7.42907 8.27805C7.47874 8.1904 7.54818 8.11544 7.63192 8.05907L10.497 6.10269L10.7777 5.91328L16.9011 1.75024Z" fill="white"/>
<path d="M14.7419 9.19831L15.527 9.91886L15.4693 9.98115L14.9437 9.58264L15.3837 10.0737L15.2892 10.1756L14.7619 9.77896L15.2018 10.27L15.1074 10.3719L14.58 9.97528L15.0217 10.4644L14.964 10.5267L14.1788 9.80614C14.1195 9.75037 14.078 9.67847 14.0595 9.59941C14.0411 9.52034 14.0464 9.4376 14.0748 9.36152L10.5168 6.09639L10.7975 5.90698L14.2987 9.1199C14.3723 9.0892 14.4533 9.08026 14.5319 9.09417C14.6105 9.10808 14.6834 9.14423 14.7419 9.19831Z" fill="#407BFF"/>
<path d="M27.9849 46.4775H25.7554V53.7781H27.9849V46.4775Z" fill="white"/>
<g opacity="0.2">
<path d="M27.9849 46.4775H25.7554V53.7781H27.9849V46.4775Z" fill="white"/>
</g>
<path d="M26.8403 47.6499C23.3706 47.6507 19.9545 46.7969 16.8967 45.1646L17.952 43.2082C21.2649 44.9702 25.03 45.7101 28.7672 45.3335C32.5043 44.957 36.044 43.481 38.9348 41.0938C41.8257 38.7067 43.9365 35.5166 44.9982 31.9305C46.0598 28.3444 46.0241 24.5248 44.8957 20.9589C44.2976 19.0472 43.3915 17.2448 42.2128 15.6222C40.526 13.2913 38.3275 11.3739 35.7844 10.0155L36.836 8.05908C38.009 8.68641 39.1211 9.42059 40.158 10.2522C41.6229 11.4304 42.9226 12.7986 44.0224 14.3204C45.3409 16.1349 46.3537 18.151 47.0211 20.2895C48.0203 23.443 48.2587 26.7865 47.7168 30.0488C47.175 33.3111 45.8683 36.4004 43.9026 39.0661C41.9369 41.7318 39.3677 43.8989 36.4032 45.3915C33.4388 46.8842 30.1626 47.6604 26.8403 47.6573V47.6499Z" fill="white"/>
<g opacity="0.3">
<path d="M26.8403 47.6499C23.3706 47.6507 19.9545 46.7969 16.8967 45.1646L17.952 43.2082C21.2649 44.9702 25.03 45.7101 28.7672 45.3335C32.5043 44.957 36.044 43.481 38.9348 41.0938C41.8257 38.7067 43.9365 35.5166 44.9982 31.9305C46.0598 28.3444 46.0241 24.5248 44.8957 20.9589C44.2976 19.0472 43.3915 17.2448 42.2128 15.6222C40.526 13.2913 38.3275 11.3739 35.7844 10.0155L36.836 8.05908C38.009 8.68641 39.1211 9.42059 40.158 10.2522C41.6229 11.4304 42.9226 12.7986 44.0224 14.3204C45.3409 16.1349 46.3537 18.151 47.0211 20.2895C48.0203 23.443 48.2587 26.7865 47.7168 30.0488C47.175 33.3111 45.8683 36.4004 43.9026 39.0661C41.9369 41.7318 39.3677 43.8989 36.4032 45.3915C33.4388 46.8842 30.1626 47.6604 26.8403 47.6573V47.6499Z" fill="white"/>
</g>
<path d="M16.1797 47.014C16.0874 47.0152 15.9964 46.9922 15.9159 46.9474C15.7888 46.8778 15.694 46.7615 15.6517 46.6234C15.6094 46.4853 15.6228 46.3362 15.6892 46.2078L37.0702 6.50968C37.1046 6.44533 37.1514 6.38835 37.2079 6.342C37.2644 6.29565 37.3296 6.26083 37.3996 6.23954C37.4697 6.21825 37.5432 6.2109 37.6161 6.2179C37.689 6.22491 37.7598 6.24614 37.8245 6.28038C37.8892 6.31462 37.9464 6.3612 37.993 6.41746C38.0396 6.47372 38.0745 6.53855 38.0959 6.60827C38.1173 6.67798 38.1247 6.75122 38.1177 6.82377C38.1106 6.89633 38.0893 6.9668 38.0549 7.03115L16.6702 46.7144C16.6232 46.8038 16.5528 46.8788 16.4664 46.9316C16.3801 46.9843 16.281 47.0128 16.1797 47.014Z" fill="white"/>
<g opacity="0.4">
<path d="M16.1797 47.014C16.0874 47.0152 15.9964 46.9922 15.9159 46.9474C15.7888 46.8778 15.694 46.7615 15.6517 46.6234C15.6094 46.4853 15.6228 46.3362 15.6892 46.2078L37.0702 6.50968C37.1046 6.44533 37.1514 6.38835 37.2079 6.342C37.2644 6.29565 37.3296 6.26083 37.3996 6.23954C37.4697 6.21825 37.5432 6.2109 37.6161 6.2179C37.689 6.22491 37.7598 6.24614 37.8245 6.28038C37.8892 6.31462 37.9464 6.3612 37.993 6.41746C38.0396 6.47372 38.0745 6.53855 38.0959 6.60827C38.1173 6.67798 38.1247 6.75122 38.1177 6.82377C38.1106 6.89633 38.0893 6.9668 38.0549 7.03115L16.6702 46.7144C16.6232 46.8038 16.5528 46.8788 16.4664 46.9316C16.3801 46.9843 16.281 47.0128 16.1797 47.014Z" fill="white"/>
</g>
<path d="M22.794 53.2383H30.9466C31.2087 53.2383 31.4602 53.3419 31.6455 53.5264C31.8309 53.7109 31.935 53.9611 31.935 54.222V56.0342H21.8093V54.222C21.8093 53.9618 21.913 53.7121 22.0975 53.5277C22.2821 53.3433 22.5325 53.2393 22.794 53.2383Z" fill="white"/>
<path d="M27.7061 10.4037C30.9268 10.5681 34.0262 11.6794 36.6123 13.597C39.1984 15.5147 41.155 18.1525 42.2348 21.177C43.3146 24.2014 43.4691 27.4767 42.6786 30.5885C41.8881 33.7003 40.1882 36.509 37.7939 38.6592C35.3996 40.8095 32.4184 42.2048 29.2274 42.6687C26.0363 43.1326 22.7787 42.6442 19.8665 41.2654C16.9543 39.8865 14.5183 37.6792 12.8666 34.9224C11.2149 32.1656 10.4216 28.9832 10.5872 25.7777C10.8091 21.4796 12.7374 17.4453 15.9477 14.5622C19.1581 11.679 23.3877 10.1832 27.7061 10.4037Z" fill="#407BFF"/>
<path opacity="0.2" d="M43.1531 27.4421C42.9793 30.8284 41.7432 34.0753 39.6187 36.7259C37.4942 39.3766 34.5882 41.2976 31.3096 42.2187C28.0309 43.1399 24.5446 43.0148 21.3412 41.8611C18.1377 40.7074 15.3782 38.5831 13.451 35.7871C11.5237 32.9911 10.5257 29.664 10.5974 26.2741C10.669 22.8841 11.8066 19.6018 13.8502 16.8889C15.8938 14.176 18.7406 12.169 21.99 11.1504C25.2394 10.1317 28.7279 10.1526 31.9647 11.2101C33.6141 11.7468 35.1652 12.5462 36.5575 13.577C38.7229 15.1653 40.4588 17.2631 41.6098 19.6828C42.7609 22.1025 43.2911 24.7685 43.1531 27.4421Z" fill="white"/>
<path opacity="0.5" d="M36.3681 13.4292C36.3432 13.4166 36.3196 13.4017 36.2975 13.3848C36.2522 13.3457 36.2023 13.3121 36.1489 13.2849C35.4726 12.9151 35.6621 14.2206 35.0341 14.5165C34.4061 14.8124 33.2988 14.2798 33.4326 13.8952C33.5663 13.5106 32.2955 12.4417 31.9462 12.2716C31.7818 12.2128 31.6056 12.1943 31.4325 12.2176C31.2594 12.2409 31.0944 12.3054 30.9516 12.4055C30.8087 12.5056 30.6922 12.6384 30.6118 12.7928C30.5314 12.9471 30.4895 13.1185 30.4896 13.2923C30.4376 14.4019 31.0507 15.0602 30.8798 15.3967C30.7088 15.7333 30.7126 15.8368 29.5867 16.3731C28.4608 16.9093 27.647 16.2251 26.967 16.8354C26.287 17.4456 27.1676 17.7858 26.8964 19.2652C26.6251 20.7445 26.2238 19.6831 25.41 19.8421C24.5963 20.0012 25.0608 19.0248 25.1648 18.4552C25.2688 17.8857 24.4216 17.7156 24.05 17.6712C23.6785 17.6268 22.7495 17.5159 22.8684 16.3694C22.9873 15.2229 22.9279 14.1504 21.3486 14.2391C20.5349 14.2909 20.0927 13.1296 19.8623 11.9609C17.8009 12.9386 15.9681 14.3353 14.4821 16.0608C12.996 17.7864 11.8896 19.8027 11.2341 21.9798C11.3195 21.9613 11.3939 22.0796 11.5128 22.3755C11.8844 23.3001 12.2299 24.2247 12.7018 24.7868C12.9104 25.0087 13.0549 25.2825 13.1203 25.5793C13.1857 25.876 13.1695 26.1849 13.0734 26.4733C12.8765 26.9282 11.9178 27.2129 11.8992 27.5273C11.8806 27.8417 10.9814 28.267 10.8402 28.5554C10.8283 28.5875 10.8063 28.6149 10.7775 28.6335C10.7487 28.6522 10.7147 28.6611 10.6804 28.659C10.9612 30.8626 11.6951 32.9849 12.8362 34.8938C13.9774 36.8027 15.5014 38.4571 17.3132 39.754C17.7182 38.7037 18.428 37.8716 18.9036 37.8457C19.8994 37.7939 22.9724 37.3094 21.8428 35.9595C20.7132 34.6096 19.5056 33.3707 19.5056 33.3707C19.742 33.015 20.008 32.6798 20.3008 32.3684C20.4828 32.2538 19.892 31.9172 20.9287 31.8063C21.9655 31.6953 22.0435 31.6879 21.6087 31.1924C21.174 30.6968 20.4568 31.074 20.9325 30.4527C21.4081 29.8314 21.9283 29.3432 22.4411 30.0311C22.9539 30.719 22.6417 31.0851 22.8127 31.2885C22.9836 31.4919 24.5182 31.1776 24.5182 31.1776C24.5182 31.1776 24.9158 31.7286 24.7449 31.8507C24.4633 32.1778 24.2062 32.5252 23.9757 32.8899C23.8515 33.2353 23.6494 33.5478 23.3849 33.8034C23.0728 33.9846 24.2396 35.1644 24.5888 35.3456C24.9381 35.5268 25.083 35.6748 25.384 35.5971C25.685 35.5194 26.2684 34.8944 26.4802 34.7058C26.692 34.5172 27.9666 34.9795 27.9666 34.9795C28.4451 35.2556 28.8945 35.579 29.308 35.9447C29.5136 36.148 29.7823 36.2761 30.0703 36.3083C30.3583 36.3406 30.6488 36.275 30.8946 36.1223C31.1585 35.8856 31.1436 35.242 31.6378 35.4639C32.132 35.6859 32.2992 35.9152 32.6411 37.1097C32.9829 38.3043 35.0155 40.0573 34.7628 40.797C36.2658 39.9732 37.6269 38.9157 38.7945 37.6645C37.3565 37.1874 36.8214 36.6363 36.6059 36.322C36.3272 35.9115 36.4907 35.9078 36.6468 35.2125C36.8029 34.5172 38.1145 34.103 38.3263 33.9144C38.5382 33.7257 39.56 32.4609 40.0616 32.3278C40.5633 32.1946 40.5261 31.5289 40.5261 31.5289C40.5261 31.5289 40.619 31.7027 40.8234 31.2626C41.0278 30.8225 40.8048 30.3713 41.4811 29.7611C41.9179 29.4288 42.427 29.2033 42.9674 29.1028C43.0562 28.5454 43.1145 27.9837 43.1421 27.42C43.1946 26.4323 43.1547 25.4418 43.0232 24.4614L41.2544 25.1308C40.84 25.1379 40.4262 25.0982 40.0208 25.0124C39.8275 24.9015 38.906 24.3097 38.1926 24.6722C37.4791 25.0346 37.4085 24.4318 36.0708 24.2136C34.7331 23.9954 36.7285 22.1129 37.0407 21.8318C37.3528 21.5508 37.4122 21.6987 38.3152 21.2512C39.2182 20.8037 39.0584 20.1084 39.0584 20.1084C38.511 19.3182 37.8683 18.5978 37.1447 17.9634C36.2678 17.2755 37.5163 17.2052 39.6901 16.5802C38.7391 15.3778 37.6205 14.3168 36.3681 13.4292ZM30.4227 33.955C30.1106 34.4247 29.6796 33.8626 29.6796 33.8626C28.4125 33.4927 28.2898 32.4683 28.7209 32.08C29.1519 31.6916 29.3637 30.3676 30.04 30.8965C30.5851 31.3008 31.1547 31.6713 31.7456 32.006C31.7456 32.006 32.4887 30.0976 32.5222 31.8729C32.5556 33.6481 33.5701 33.1081 32.5445 33.6518C31.5189 34.1954 30.7423 33.4742 30.4302 33.9439L30.4227 33.955ZM35.376 34.4358C35.3818 34.8891 35.3306 35.3414 35.2236 35.782L34.2724 36.2665C33.5626 35.6785 33.8376 34.7872 34.224 34.7058C34.6105 34.6244 35.3314 33.9143 35.3871 34.4247L35.376 34.4358ZM33.6332 20.7223C33.8822 21.2068 33.1242 21.5212 32.2844 22.7453C31.4446 23.9695 30.9281 22.9709 30.9281 22.9709C30.9281 22.9709 29.2262 21.6173 29.7799 21.0256C30.3336 20.4339 29.9174 19.6535 30.7349 19.2023C31.2439 18.9212 31.7493 19.1653 32.2212 19.6868C32.6931 20.2083 33.3954 20.2304 33.6407 20.7112L33.6332 20.7223Z" fill="white"/>
<path opacity="0.2" d="M31.9647 11.2102C32.1988 16.092 30.627 21.3622 27.1787 25.889C23.3625 30.9002 18.0414 33.9551 12.7389 34.7243C11.0957 31.8766 10.3588 28.5999 10.6254 25.3268C10.892 22.0536 12.1495 18.9378 14.2321 16.3908C16.3147 13.8437 19.1243 11.985 22.2902 11.0601C25.4561 10.1352 28.8294 10.1875 31.9647 11.2102Z" fill="white"/>
<g opacity="0.3">
<path d="M22.794 53.2383H30.9466C31.2087 53.2383 31.4602 53.3419 31.6455 53.5264C31.8309 53.7109 31.935 53.9611 31.935 54.222V56.0342H21.8093V54.222C21.8093 53.9618 21.913 53.7121 22.0975 53.5277C22.2821 53.3433 22.5325 53.2393 22.794 53.2383Z" fill="white"/>
</g>
<path d="M18.3943 55.502H35.3461C35.6516 55.502 35.9446 55.6227 36.1606 55.8377C36.3766 56.0528 36.498 56.3444 36.498 56.6484V58.5309H17.2424V56.6484C17.2424 56.3444 17.3638 56.0528 17.5798 55.8377C17.7958 55.6227 18.0888 55.502 18.3943 55.502Z" fill="white"/>
<g opacity="0.4">
<path d="M18.3943 55.502H35.3461C35.6516 55.502 35.9446 55.6227 36.1606 55.8377C36.3766 56.0528 36.498 56.3444 36.498 56.6484V58.5309H17.2424V56.6484C17.2424 56.3444 17.3638 56.0528 17.5798 55.8377C17.7958 55.6227 18.0888 55.502 18.3943 55.502Z" fill="white"/>
</g>
</svg>
